<svg width="200" height="120" viewBox="0 0 200 120" fill="none" xmlns="http://www.w3.org/2000/svg">
  <!-- Background -->
  <rect width="200" height="120" fill="#ffffff"/>
  <rect x="10" y="10" width="180" height="100" rx="4" fill="#F9FAFB" stroke="#E5E7EB" stroke-width="1"/>

  <!-- Document icon -->
  <path d="M25 25 L25 50 L40 50 L40 30 L35 25 Z" fill="#3B82F6" opacity="0.2"/>
  <path d="M35 25 L35 30 L40 30" fill="none" stroke="#3B82F6" stroke-width="1"/>

  <!-- Title -->
  <text x="50" y="32" font-family="system-ui, -apple-system, sans-serif" font-size="11" font-weight="700" fill="#1F2937">Narrative Title</text>

  <!-- Text lines -->
  <line x1="25" y1="45" x2="175" y2="45" stroke="#9CA3AF" stroke-width="1.5" stroke-linecap="round"/>
  <line x1="25" y1="52" x2="165" y2="52" stroke="#9CA3AF" stroke-width="1.5" stroke-linecap="round"/>
  <line x1="25" y1="59" x2="170" y2="59" stroke="#9CA3AF" stroke-width="1.5" stroke-linecap="round"/>

  <!-- Bullet points -->
  <circle cx="27" cy="70" r="2" fill="#3B82F6"/>
  <line x1="35" y1="70" x2="150" y2="70" stroke="#9CA3AF" stroke-width="1.5" stroke-linecap="round"/>

  <circle cx="27" cy="78" r="2" fill="#3B82F6"/>
  <line x1="35" y1="78" x2="145" y2="78" stroke="#9CA3AF" stroke-width="1.5" stroke-linecap="round"/>

  <!-- Link indicator -->
  <rect x="25" y="88" width="40" height="12" rx="2" fill="#DBEAFE" stroke="#3B82F6" stroke-width="1"/>
  <text x="45" y="96" font-family="system-ui, -apple-system, sans-serif" font-size="8" fill="#3B82F6" text-anchor="middle" font-weight="500">Link</text>
</svg>
